<svg width="40" height="40" viewBox="0 0 40 40" fill="none" xmlns="http://www.w3.org/2000/svg">
<path d="M39.2792 19.9799C39.2792 19.5374 39.0617 19.1484 38.7307 18.9044L38.7377 18.8924L34.0757 16.2009L36.7592 11.5529L36.7502 11.5474C36.8349 11.3558 36.8734 11.147 36.8623 10.9378C36.8513 10.7286 36.7911 10.525 36.6867 10.3434C36.5815 10.162 36.4349 10.008 36.259 9.8938C36.0831 9.77964 35.8827 9.70859 35.6742 9.68641V9.67341H30.2902V4.30491H30.2792C30.2568 4.09663 30.1856 3.89656 30.0715 3.72091C29.9573 3.54526 29.8034 3.39898 29.6222 3.29391C29.4403 3.18915 29.2363 3.12887 29.0267 3.11801C28.8171 3.10715 28.6079 3.14601 28.4162 3.23141L28.4097 3.21991L23.6692 5.95691L21.0442 1.40991L21.0347 1.41541C20.9111 1.24627 20.7494 1.10862 20.5628 1.01359C20.3761 0.918554 20.1697 0.86882 19.9602 0.868408C19.5177 0.868408 19.1282 1.08591 18.8847 1.41691L18.8727 1.40991L16.2042 6.03191L11.6092 3.37891L11.6037 3.38841C11.4121 3.30365 11.2033 3.26522 10.9941 3.27625C10.7849 3.28729 10.5813 3.34746 10.3997 3.45191C10.2181 3.55703 10.064 3.70352 9.94974 3.87946C9.83549 4.05539 9.76438 4.25581 9.74218 4.46441H9.72868V9.80141H4.42268V9.81191C4.2144 9.83431 4.01433 9.90547 3.83869 10.0196C3.66304 10.1338 3.51675 10.2877 3.41168 10.4689C3.30719 10.6507 3.24703 10.8545 3.23609 11.0639C3.22514 11.2732 3.26372 11.4822 3.34868 11.6739L3.33718 11.6809L5.96018 16.2244L1.26318 18.9364L1.26868 18.9459C1.09954 19.0695 0.961889 19.2312 0.866858 19.4178C0.771826 19.6045 0.722091 19.8109 0.72168 20.0204C0.72168 20.4629 0.93918 20.8524 1.27018 21.0959L1.26318 21.1079L5.92518 23.7994L3.24168 28.4474L3.25068 28.4524C3.16592 28.644 3.1275 28.8528 3.13853 29.062C3.14956 29.2712 3.20974 29.4748 3.31418 29.6564C3.4194 29.8378 3.56592 29.9919 3.74184 30.106C3.91777 30.2202 4.11814 30.2912 4.32668 30.3134V30.3269H9.71018V35.6949H9.72118C9.76718 36.1029 9.99568 36.4849 10.3782 36.7059C10.5601 36.8106 10.7641 36.8708 10.9737 36.8816C11.1833 36.8925 11.3924 36.8537 11.5842 36.7684L11.5907 36.7799L16.3312 34.0429L18.9562 38.5899L18.9657 38.5844C19.0893 38.7535 19.2509 38.8912 19.4376 38.9862C19.6243 39.0813 19.8307 39.131 20.0402 39.1314C20.4827 39.1314 20.8722 38.9139 21.1157 38.5834L21.1272 38.5899L23.7957 33.9679L28.3912 36.6209L28.3967 36.6114C28.5882 36.6962 28.7971 36.7346 29.0063 36.7236C29.2155 36.7125 29.4191 36.6523 29.6007 36.5479C29.7822 36.4428 29.9364 36.2963 30.0506 36.1204C30.1649 35.9444 30.236 35.744 30.2582 35.5354H30.2717V30.1989H35.5782V30.1884C35.7865 30.166 35.9865 30.0948 36.1622 29.9807C36.3378 29.8665 36.4841 29.7126 36.5892 29.5314C36.6936 29.3495 36.7538 29.1456 36.7647 28.9362C36.7757 28.7267 36.7371 28.5177 36.6522 28.3259L36.6637 28.3194L34.0407 23.7759L38.7377 21.0639L38.7322 21.0544C38.9014 20.9309 39.0391 20.7692 39.1341 20.5825C39.2292 20.3958 39.2789 20.1894 39.2792 19.9799ZM16.8577 25.6774L11.9347 23.5024L14.1072 27.2649L12.8792 27.9739L9.54818 22.2054L10.8107 21.4759L15.5757 23.5569L13.4832 19.9329L14.7117 19.2239L18.0417 24.9924L16.8577 25.6774ZM19.1837 24.3344L15.8532 18.5654L19.9357 16.2089L20.5597 17.2899L17.7052 18.9374L18.4042 20.1484L21.1977 18.5359L21.8217 19.6159L19.0282 21.2294L19.7872 22.5439L22.6417 20.8964L23.2657 21.9774L19.1837 24.3344ZM28.6367 18.8769L25.3377 15.4999L26.6212 20.0399L25.3157 20.7939L20.3332 15.9794L21.7082 15.1854L25.1272 18.7694L23.8187 13.9669L24.7787 13.4129L28.2752 16.9524L26.8802 12.1994L28.2552 11.4054L29.9427 18.1234L28.6367 18.8769Z" fill="#FBAF00"/>
</svg>
